HIERARCHY
ROOT root
{
	OFFSET 0.000000 0.000000 0.000000
	CHANNELS 6 Xposition Yposition Zposition Zrotation Yrotation Xrotation
	JOINT lhip
	{
		OFFSET 0.058581 -0.082280 -0.017664
		CHANNELS 3 Zrotation Yrotation Xrotation
		JOINT lknee
		{
			OFFSET 0.043451 -0.386469 0.008037
			CHANNELS 3 Zrotation Yrotation Xrotation
			JOINT lankle
			{
				OFFSET -0.014790 -0.426874 -0.037428
				CHANNELS 3 Zrotation Yrotation Xrotation
				JOINT ltoe
				{
					OFFSET 0.041054 -0.060286 0.122042
					CHANNELS 3 Zrotation Yrotation Xrotation
					End Site
					{
						OFFSET 0.000000 0.000000 0.000000
					}
				}
			}
		}
	}
	JOINT rhip
	{
		OFFSET -0.060310 -0.090513 -0.013543
		CHANNELS 3 Zrotation Yrotation Xrotation
		JOINT rknee
		{
			OFFSET -0.043257 -0.383688 -0.004843
			CHANNELS 3 Zrotation Yrotation Xrotation
			JOINT rankle
			{
				OFFSET 0.019056 -0.420046 -0.034562
				CHANNELS 3 Zrotation Yrotation Xrotation
				JOINT rtoe
				{
					OFFSET -0.034840 -0.062106 0.130323
					CHANNELS 3 Zrotation Yrotation Xrotation
					End Site
					{
						OFFSET 0.000000 0.000000 0.000000
					}
				}
			}
		}
	}
	JOINT lowerback
	{
		OFFSET 0.004439 0.124404 -0.038385
		CHANNELS 3 Zrotation Yrotation Xrotation
		JOINT upperback
		{
			OFFSET 0.004488 0.137956 0.026820
			CHANNELS 3 Zrotation Yrotation Xrotation
			JOINT chest
			{
				OFFSET -0.002265 0.056032 0.002855
				CHANNELS 3 Zrotation Yrotation Xrotation
				JOINT lowerneck
				{
					OFFSET -0.013390 0.211636 -0.033468
					CHANNELS 3 Zrotation Yrotation Xrotation
					JOINT upperneck
					{
						OFFSET 0.010113 0.088937 0.050410
						CHANNELS 3 Zrotation Yrotation Xrotation
						End Site
						{
							OFFSET 0.000000 0.000000 0.000000
						}
					}
				}
				JOINT lclavicle
				{
					OFFSET 0.071702 0.114000 -0.018898
					CHANNELS 3 Zrotation Yrotation Xrotation
					JOINT lshoulder
					{
						OFFSET 0.122921 0.045205 -0.019046
						CHANNELS 3 Zrotation Yrotation Xrotation
						JOINT lelbow
						{
							OFFSET 0.255332 -0.015649 -0.022946
							CHANNELS 3 Zrotation Yrotation Xrotation
							JOINT lwrist
							{
								OFFSET 0.265709 0.012698 -0.007375
								CHANNELS 3 Zrotation Yrotation Xrotation
								End Site
								{
									OFFSET 0.000000 0.000000 0.000000
								}
							}
						}
					}
				}
				JOINT rclavicle
				{
					OFFSET -0.082954 0.112472 -0.023707
					CHANNELS 3 Zrotation Yrotation Xrotation
					JOINT rshoulder
					{
						OFFSET -0.113228 0.046853 -0.008472
						CHANNELS 3 Zrotation Yrotation Xrotation
						JOINT relbow
						{
							OFFSET -0.260127 -0.014369 -0.031269
							CHANNELS 3 Zrotation Yrotation Xrotation
							JOINT rwrist
							{
								OFFSET -0.269108 0.006794 -0.006027
								CHANNELS 3 Zrotation Yrotation Xrotation
								End Site
								{
									OFFSET 0.000000 0.000000 0.000000
								}
							}
						}
					}
				}
			}
		}
	}
}
MOTION
Frames: 7
Frame Time: 0.033333
1.440076 0.238465 0.888823 -81.043551 -1.680628 96.010614 0.725125 -2.448503 21.983721 -7.179310 -23.012694 26.689922 -9.848666 6.361025 9.705702 0.000000 -0.000000 0.000000 -11.751407 -3.541606 -53.555530 2.014298 -17.112072 25.915809 -2.056911 -10.812258 5.405286 0.000000 -0.000000 0.000000 2.315568 -14.938329 14.627254 4.243275 -1.501613 6.126160 0.685040 -1.913314 -5.566591 -7.485177 2.853720 -11.955386 0.438040 1.967573 -15.222296 -19.488362 8.015394 1.408596 -60.015194 -10.014085 26.307039 -179.876587 -51.430964 -167.992003 15.120921 -21.513018 -29.322667 16.152777 -15.898014 8.262211 46.532704 -22.003578 5.696614 1.050062 64.751242 9.668272 -4.638154 16.772541 -7.951340 
1.308762 0.243740 0.882942 -80.284445 -1.775102 93.780253 0.077695 -4.140004 17.987092 -9.553383 -17.703546 46.238698 -6.534891 8.227507 4.284427 0.000000 -0.000000 0.000000 -10.482927 -4.164909 -49.657494 2.703753 -18.517966 25.307326 -1.952460 -8.937855 8.896144 0.000000 -0.000000 0.000000 1.896056 -12.905907 13.988770 5.513225 -2.076325 6.773322 0.328413 -1.947117 -5.618634 -7.982560 1.174818 -9.406930 0.464308 1.552834 -16.296038 -21.015705 9.616958 2.425490 -58.444522 -7.240648 24.689820 179.735740 -59.364982 -167.424034 12.564195 -21.494157 -27.146969 18.149330 -16.186816 6.149870 46.245251 -22.203955 3.665806 -1.767656 65.244053 6.250289 -2.813529 16.444678 -5.488136 
1.183617 0.251217 0.871402 -80.753862 -1.351184 91.002199 0.616438 -5.239235 11.483645 -12.634437 -11.290749 65.762793 -3.678828 9.885522 0.013746 0.000000 -0.000000 0.000000 -8.036142 -3.302384 -46.586703 3.911919 -16.593110 33.069421 -8.030676 -8.708301 2.273239 0.000000 -0.000000 0.000000 1.557288 -10.242461 15.973417 5.697804 -0.980877 5.660449 0.401645 -2.016323 -4.932533 -7.291558 -0.633796 -9.001088 -0.008210 0.865468 -15.483157 -23.283686 10.382101 3.118180 -56.542624 -4.906125 22.340259 175.157903 -71.108485 -162.091409 10.370408 -20.757961 -23.270840 21.426080 -15.128212 3.514258 46.212543 -20.465249 2.977141 -6.745442 63.919856 0.950842 -2.047794 15.846595 -5.117921 
1.041789 0.264076 0.861939 -84.043907 0.398594 86.825050 3.731124 -4.675164 -1.291032 -13.108266 -2.008917 84.655345 0.058338 11.959689 -7.742106 0.000000 -0.000000 0.000000 -3.583760 1.641437 -43.019282 1.589669 -14.885538 49.746959 -11.963005 -13.219069 -10.358174 0.000000 -0.000000 0.000000 1.619332 -6.591928 21.938635 5.034563 1.678415 4.248951 0.923566 -1.190515 -4.663711 -5.504064 -0.981674 -11.815184 -1.073258 -0.971545 -12.699854 -26.681856 9.198765 2.736340 -55.123745 -2.296695 19.325651 77.091087 -82.933010 -65.218057 8.954604 -20.104475 -19.262513 26.898940 -9.134352 1.416230 45.633142 -14.225752 4.186711 -15.304645 57.894230 -8.510956 -4.393620 14.949946 -8.711593 
0.962928 0.270736 0.863175 -84.697741 1.337756 85.013560 5.682234 -4.722099 -12.352801 -12.500893 1.527290 90.597159 1.960531 13.530344 -12.513232 0.000000 -0.000000 0.000000 -1.462947 3.840729 -38.200798 0.876494 -14.882692 54.836267 -11.367310 -15.583283 -17.299604 0.000000 -0.000000 0.000000 1.675890 -4.796381 24.375934 4.941768 1.543102 4.977111 1.537507 -0.422067 -5.711050 -4.802953 -0.586338 -13.036385 -1.548178 -1.877907 -11.723160 -27.824851 7.612274 3.044249 -54.546775 -1.301499 16.869822 32.879662 -72.950276 -21.869346 6.854472 -19.734271 -13.938303 28.167385 -4.137271 2.349625 45.693343 -9.311924 4.276704 -18.669904 56.014813 -11.432433 -5.804264 15.224681 -9.608925 
0.860043 0.276812 0.868283 -83.440921 0.999885 83.432750 5.834684 -6.048205 -27.631994 -11.414845 4.219139 88.880298 3.792807 14.653104 -17.151394 0.000000 -0.000000 0.000000 0.473350 2.391008 -29.307932 0.665198 -13.813747 56.697369 -10.200501 -17.656667 -26.351740 0.000000 -0.000000 0.000000 1.217143 -1.854213 25.890431 4.681910 -0.563990 4.386024 2.118197 0.171635 -5.759790 -3.659193 -1.872976 -12.793212 -1.072873 -1.741800 -10.961287 -27.043679 5.731281 4.988369 -51.868596 1.375390 14.756607 17.604979 -67.321222 -5.722330 4.005158 -19.286003 -9.724822 26.187909 0.256436 2.871293 47.956224 -5.218581 4.458410 -23.326172 61.828352 -12.651638 -6.773019 16.299795 -9.810004 
0.757818 0.280366 0.874313 -83.088527 -0.409560 83.120853 4.903948 -7.493247 -39.284591 -11.236193 5.375935 74.956757 5.164603 13.652731 -18.532468 0.000000 -0.000000 0.000000 1.086710 0.279906 -21.298939 1.070224 -11.058113 57.349332 -7.317763 -17.616877 -31.874777 0.000000 -0.000000 0.000000 0.700158 1.979124 25.799193 3.592359 -1.991146 2.394652 2.016480 0.212948 -4.449708 -1.972561 -4.712969 -11.802560 0.758322 -1.235642 -11.267230 -24.672095 5.758283 6.610043 -47.351095 6.238601 15.485762 1.235962 -73.825701 12.722824 3.271699 -20.536727 -13.833370 22.512424 0.854206 1.338302 50.879064 -3.030962 5.396968 -29.952029 73.518893 -15.895080 -7.986828 17.085313 -12.377451 
